<?xml version="1.0" encoding="UTF-8"?>
<!DOCTYPE svg PUBLIC "-//W3C//DTD SVG 1.1//EN" "http://www.w3.org/Graphics/SVG/1.1/DTD/svg11.dtd">
<svg xmlns="http://www.w3.org/2000/svg" version="1.1" width="128px" height="128px" style="shape-rendering:geometricPrecision; text-rendering:geometricPrecision; image-rendering:optimizeQuality; fill-rule:evenodd; clip-rule:evenodd" xmlns:xlink="http://www.w3.org/1999/xlink">
<g><path style="opacity:1" fill="#6932ef" d="M 34.5,10.5 C 35.0722,12.2554 35.9055,13.9221 37,15.5C 37.69,16.7383 38.19,16.7383 38.5,15.5C 39.6737,16.5137 40.3404,17.847 40.5,19.5C 40.427,21.0269 41.0937,22.0269 42.5,22.5C 43.3382,22.8417 43.6716,23.5084 43.5,24.5C 45.1571,28.4837 46.8237,32.4837 48.5,36.5C 47.1026,39.4065 45.1026,41.9065 42.5,44C 42.7284,44.3988 43.0618,44.5654 43.5,44.5C 43.1583,45.3382 42.4916,45.6716 41.5,45.5C 39.8042,45.6854 38.4709,46.5187 37.5,48C 37.9892,50.2092 38.9892,52.0425 40.5,53.5C 40.8333,54.1667 41.1667,54.8333 41.5,55.5C 40.9569,55.56 40.6236,55.8933 40.5,56.5C 41.3611,58.9106 42.6944,60.9106 44.5,62.5C 44.427,64.0269 45.0937,65.0269 46.5,65.5C 46.5,67.5 47.5,68.5 49.5,68.5C 50.5,69.8333 51.5,71.1667 52.5,72.5C 52.5,73.8333 53.1667,74.5 54.5,74.5C 57.0599,76.2733 59.3932,78.2733 61.5,80.5C 61.9731,81.9063 62.9731,82.573 64.5,82.5C 65.4916,82.3284 66.1583,82.6618 66.5,83.5C 67.911,85.539 69.911,86.539 72.5,86.5C 73.791,86.2627 74.791,86.596 75.5,87.5C 78.5139,90.5377 80.5139,89.871 81.5,85.5C 81.427,83.9731 82.0937,82.9731 83.5,82.5C 83.4346,82.9382 83.6012,83.2716 84,83.5C 85.5,82 87,80.5 88.5,79C 90.4541,78.8382 92.1207,78.6715 93.5,78.5C 93.8333,78.5 94.1667,78.5 94.5,78.5C 96.4179,81.1379 99.0846,82.8046 102.5,83.5C 103.659,85.2503 105.326,86.2503 107.5,86.5C 107.833,86.5 108.167,86.5 108.5,86.5C 110.373,89.4488 113.039,91.4488 116.5,92.5C 117.496,92.4142 118.329,92.7476 119,93.5C 119.667,95.5 119.667,97.5 119,99.5C 112.34,107.063 104.84,113.563 96.5,119C 91.0376,119.754 85.7043,119.254 80.5,117.5C 78.309,115.387 75.6424,113.72 72.5,112.5C 71.8933,112.624 71.56,112.957 71.5,113.5C 70.8333,113.5 70.5,113.167 70.5,112.5C 66.8362,109.665 62.8362,107.332 58.5,105.5C 55.1092,104.471 52.4426,102.471 50.5,99.5C 49.7377,97.7376 48.4044,96.7376 46.5,96.5C 45.5,96.1667 44.8333,95.5 44.5,94.5C 40.8333,90.1667 36.8333,86.1667 32.5,82.5C 30.8536,79.1898 28.5203,76.5232 25.5,74.5C 24.0256,73.5637 23.0256,72.2303 22.5,70.5C 22.9367,68.4048 21.9367,66.7382 19.5,65.5C 16.0734,60.9843 13.4068,55.9843 11.5,50.5C 11.9382,50.5654 12.2716,50.3988 12.5,50C 11.8095,48.9326 11.3095,47.7659 11,46.5C 10.6012,46.7284 10.4346,47.0618 10.5,47.5C 9.46253,46.0697 8.79586,44.403 8.5,42.5C 9.85281,40.8716 9.51948,39.5383 7.5,38.5C 7.5,38.1667 7.5,37.8333 7.5,37.5C 8.37051,34.997 9.03718,32.3303 9.5,29.5C 11.3497,28.7582 12.0164,27.7582 11.5,26.5C 11.5,25.8333 11.8333,25.5 12.5,25.5C 14.5869,24.4154 15.9202,22.7488 16.5,20.5C 19.2427,18.7607 21.2427,16.4274 22.5,13.5C 24.7589,8.72124 28.4256,6.8879 33.5,8C 34.2524,8.67076 34.5858,9.5041 34.5,10.5 Z"/></g>
<g><path style="opacity:0.998" fill="#7743e0" d="M 105.5,23.5 C 106.136,25.7946 107.469,27.4613 109.5,28.5C 116.664,37.455 119.998,47.7883 119.5,59.5C 116.5,59.5 113.5,59.5 110.5,59.5C 110.25,42.9922 103.25,30.3255 89.5,21.5C 87.6823,19.4331 85.349,18.0997 82.5,17.5C 81.8933,17.6236 81.56,17.9569 81.5,18.5C 77.01,16.8887 72.3434,16.222 67.5,16.5C 67.5,13.5 67.5,10.5 67.5,7.5C 82.6637,7.2123 95.3303,12.5456 105.5,23.5 Z"/></g>
<g><path style="opacity:0.965" fill="#b6ae7b" d="M 34.5,10.5 C 36.543,11.5794 37.8763,13.246 38.5,15.5C 38.19,16.7383 37.69,16.7383 37,15.5C 35.9055,13.9221 35.0722,12.2554 34.5,10.5 Z"/></g>
<g><path style="opacity:0.824" fill="#9988b2" d="M 22.5,13.5 C 21.2427,16.4274 19.2427,18.7607 16.5,20.5C 17.7573,17.5726 19.7573,15.2393 22.5,13.5 Z"/></g>
<g><path style="opacity:0.569" fill="#a08d90" d="M 81.5,18.5 C 81.56,17.9569 81.8933,17.6236 82.5,17.5C 85.349,18.0997 87.6823,19.4331 89.5,21.5C 86.8284,20.4986 84.1618,19.4986 81.5,18.5 Z"/></g>
<g><path style="opacity:0.855" fill="#cbe67c" d="M 40.5,19.5 C 41.9063,19.9731 42.573,20.9731 42.5,22.5C 41.0937,22.0269 40.427,21.0269 40.5,19.5 Z"/></g>
<g><path style="opacity:0.616" fill="#798cab" d="M 16.5,20.5 C 15.9202,22.7488 14.5869,24.4154 12.5,25.5C 13.0798,23.2512 14.4131,21.5846 16.5,20.5 Z"/></g>
<g><path style="opacity:0.784" fill="#66899f" d="M 105.5,23.5 C 107.543,24.5794 108.876,26.246 109.5,28.5C 107.469,27.4613 106.136,25.7946 105.5,23.5 Z"/></g>
<g><path style="opacity:0.816" fill="#d6b1a3" d="M 11.5,26.5 C 12.0164,27.7582 11.3497,28.7582 9.5,29.5C 9.42702,27.9731 10.0937,26.9731 11.5,26.5 Z"/></g>
<g><path style="opacity:0.997" fill="#703ae8" d="M 85.5,32.5 C 85.0618,32.4346 84.7284,32.6012 84.5,33C 85.2438,34.0386 86.2438,34.5386 87.5,34.5C 88.4916,34.3284 89.1583,34.6618 89.5,35.5C 89.0618,35.4346 88.7284,35.6012 88.5,36C 89.3333,36.8333 90.1667,37.6667 91,38.5C 91.3988,38.2716 91.5654,37.9382 91.5,37.5C 92.3382,37.8417 92.6716,38.5084 92.5,39.5C 92.369,40.2389 92.5357,40.9056 93,41.5C 93.69,42.7383 94.19,42.7383 94.5,41.5C 95.3382,41.8417 95.6716,42.5084 95.5,43.5C 95.0618,43.4346 94.7284,43.6012 94.5,44C 95.3994,45.6516 96.3994,47.1516 97.5,48.5C 99.217,51.8448 99.8836,55.5115 99.5,59.5C 96.5,59.5 93.5,59.5 90.5,59.5C 90.702,57.0504 90.3686,54.717 89.5,52.5C 90.8852,51.0527 90.5518,50.0527 88.5,49.5C 88.5,49.1667 88.5,48.8333 88.5,48.5C 88.9382,48.5654 89.2716,48.3988 89.5,48C 87.3166,44.2895 84.6499,41.7895 81.5,40.5C 80.1667,39.8333 78.8333,39.1667 77.5,38.5C 76.9473,36.4482 75.9473,36.1148 74.5,37.5C 72.283,36.6314 69.9496,36.298 67.5,36.5C 67.5,33.5 67.5,30.5 67.5,27.5C 74.1497,27.1655 80.1497,28.8321 85.5,32.5 Z"/></g>
<g><path style="opacity:0.4" fill="#aaaa84" d="M 9.5,29.5 C 9.03718,32.3303 8.37051,34.997 7.5,37.5C 7.33669,35.1432 7.50335,32.8098 8,30.5C 8.38258,29.944 8.88258,29.6107 9.5,29.5 Z"/></g>
<g><path style="opacity:0.129" fill="#b47f57" d="M 85.5,32.5 C 86.5,32.8333 87.1667,33.5 87.5,34.5C 86.2438,34.5386 85.2438,34.0386 84.5,33C 84.7284,32.6012 85.0618,32.4346 85.5,32.5 Z"/></g>
<g><path style="opacity:0.031" fill="#959d8f" d="M 43.5,24.5 C 47.5801,28.6629 49.4134,33.6629 49,39.5C 47.2962,41.3734 45.4628,43.0401 43.5,44.5C 43.0618,44.5654 42.7284,44.3988 42.5,44C 45.1026,41.9065 47.1026,39.4065 48.5,36.5C 46.8237,32.4837 45.1571,28.4837 43.5,24.5 Z"/></g>
<g><path style="opacity:0.016" fill="#d6cda3" d="M 89.5,35.5 C 90.5,35.8333 91.1667,36.5 91.5,37.5C 91.5654,37.9382 91.3988,38.2716 91,38.5C 90.1667,37.6667 89.3333,36.8333 88.5,36C 88.7284,35.6012 89.0618,35.4346 89.5,35.5 Z"/></g>
<g><path style="opacity:0.58" fill="#67998c" d="M 74.5,37.5 C 75.9473,36.1148 76.9473,36.4482 77.5,38.5C 76.609,37.8902 75.609,37.5569 74.5,37.5 Z"/></g>
<g><path style="opacity:0.749" fill="#b8cbb8" d="M 7.5,38.5 C 9.51948,39.5383 9.85281,40.8716 8.5,42.5C 8.16667,41.1667 7.83333,39.8333 7.5,38.5 Z"/></g>
<g><path style="opacity:0.749" fill="#aecdb0" d="M 92.5,39.5 C 93.5,39.8333 94.1667,40.5 94.5,41.5C 94.19,42.7383 93.69,42.7383 93,41.5C 92.5357,40.9056 92.369,40.2389 92.5,39.5 Z"/></g>
<g><path style="opacity:0.055" fill="#a9cc9f" d="M 95.5,43.5 C 96.9313,44.7804 97.5979,46.4471 97.5,48.5C 96.3994,47.1516 95.3994,45.6516 94.5,44C 94.7284,43.6012 95.0618,43.4346 95.5,43.5 Z"/></g>
<g><path style="opacity:0.047" fill="#ab9299" d="M 88.5,48.5 C 86.1956,45.8587 83.8623,43.192 81.5,40.5C 84.6499,41.7895 87.3166,44.2895 89.5,48C 89.2716,48.3988 88.9382,48.5654 88.5,48.5 Z"/></g>
<g><path style="opacity:0.62" fill="#9da886" d="M 11.5,50.5 C 10.596,49.791 10.2627,48.791 10.5,47.5C 10.4346,47.0618 10.6012,46.7284 11,46.5C 11.3095,47.7659 11.8095,48.9326 12.5,50C 12.2716,50.3988 11.9382,50.5654 11.5,50.5 Z"/></g>
<g><path style="opacity:0.353" fill="#7a91b2" d="M 41.5,45.5 C 39.2433,47.8784 38.91,50.5451 40.5,53.5C 38.9892,52.0425 37.9892,50.2092 37.5,48C 38.4709,46.5187 39.8042,45.6854 41.5,45.5 Z"/></g>
<g><path style="opacity:0.933" fill="#647e56" d="M 88.5,49.5 C 90.5518,50.0527 90.8852,51.0527 89.5,52.5C 89.4431,51.391 89.1098,50.391 88.5,49.5 Z"/></g>
<g><path style="opacity:0.984" fill="#c9b785" d="M 41.5,55.5 C 42.7729,57.7128 43.7729,60.0462 44.5,62.5C 42.6944,60.9106 41.3611,58.9106 40.5,56.5C 40.6236,55.8933 40.9569,55.56 41.5,55.5 Z"/></g>
<g><path style="opacity:0.898" fill="#a6de8e" d="M 44.5,62.5 C 45.9063,62.9731 46.573,63.9731 46.5,65.5C 45.0937,65.0269 44.427,64.0269 44.5,62.5 Z"/></g>
<g><path style="opacity:0.047" fill="#a9b891" d="M 19.5,65.5 C 21.9367,66.7382 22.9367,68.4048 22.5,70.5C 21.1103,69.1007 20.1103,67.4341 19.5,65.5 Z"/></g>
<g><path style="opacity:0.749" fill="#c7d3d4" d="M 46.5,65.5 C 47.8333,66.1667 48.8333,67.1667 49.5,68.5C 47.5,68.5 46.5,67.5 46.5,65.5 Z"/></g>
<g><path style="opacity:0.878" fill="#aebd4c" d="M 52.5,72.5 C 53.5,72.8333 54.1667,73.5 54.5,74.5C 53.1667,74.5 52.5,73.8333 52.5,72.5 Z"/></g>
<g><path style="opacity:0.051" fill="#8d7784" d="M 25.5,74.5 C 28.5203,76.5232 30.8536,79.1898 32.5,82.5C 29.4503,80.4509 27.117,77.7843 25.5,74.5 Z"/></g>
<g><path style="opacity:0.976" fill="#98897a" d="M 94.5,78.5 C 97.5396,79.6803 100.206,81.347 102.5,83.5C 99.0846,82.8046 96.4179,81.1379 94.5,78.5 Z"/></g>
<g><path style="opacity:0.055" fill="#639789" d="M 61.5,80.5 C 63.0269,80.427 64.0269,81.0937 64.5,82.5C 62.9731,82.573 61.9731,81.9063 61.5,80.5 Z"/></g>
<g><path style="opacity:0.933" fill="#87a15a" d="M 93.5,78.5 C 92.1207,78.6715 90.4541,78.8382 88.5,79C 87,80.5 85.5,82 84,83.5C 83.6012,83.2716 83.4346,82.9382 83.5,82.5C 85.6761,77.8273 89.0094,76.494 93.5,78.5 Z"/></g>
<g><path style="opacity:0.157" fill="#93c57a" d="M 102.5,83.5 C 104.674,83.7497 106.341,84.7497 107.5,86.5C 105.326,86.2503 103.659,85.2503 102.5,83.5 Z"/></g>
<g><path style="opacity:0.973" fill="#7e887d" d="M 66.5,83.5 C 68.8185,83.9925 70.8185,84.9925 72.5,86.5C 69.911,86.539 67.911,85.539 66.5,83.5 Z"/></g>
<g><path style="opacity:0.992" fill="#6d97c1" d="M 81.5,85.5 C 80.5139,89.871 78.5139,90.5377 75.5,87.5C 77.8583,87.7475 79.8583,87.0808 81.5,85.5 Z"/></g>
<g><path style="opacity:0.765" fill="#817d67" d="M 108.5,86.5 C 111.563,88.0252 114.23,90.0252 116.5,92.5C 113.039,91.4488 110.373,89.4488 108.5,86.5 Z"/></g>
<g><path style="opacity:0.718" fill="#9d8894" d="M 32.5,82.5 C 36.8333,86.1667 40.8333,90.1667 44.5,94.5C 39.5,91.5 35.5,87.5 32.5,82.5 Z"/></g>
<g><path style="opacity:0.047" fill="#a0a584" d="M 46.5,96.5 C 48.4044,96.7376 49.7377,97.7376 50.5,99.5C 48.5956,99.2624 47.2623,98.2624 46.5,96.5 Z"/></g>
<g><path style="opacity:0.929" fill="#918c88" d="M 58.5,105.5 C 62.8362,107.332 66.8362,109.665 70.5,112.5C 65.8349,111.172 61.8349,108.839 58.5,105.5 Z"/></g>
<g><path style="opacity:0.4" fill="#a2a98c" d="M 71.5,113.5 C 71.56,112.957 71.8933,112.624 72.5,112.5C 75.6424,113.72 78.309,115.387 80.5,117.5C 77.3821,116.441 74.3821,115.108 71.5,113.5 Z"/></g>
</svg>
