<?xml version="1.0" encoding="UTF-8"?>
<!DOCTYPE svg PUBLIC "-//W3C//DTD SVG 1.1//EN" "http://www.w3.org/Graphics/SVG/1.1/DTD/svg11.dtd">
<svg xmlns="http://www.w3.org/2000/svg" version="1.1" width="128px" height="128px" style="shape-rendering:geometricPrecision; text-rendering:geometricPrecision; image-rendering:optimizeQuality; fill-rule:evenodd; clip-rule:evenodd" xmlns:xlink="http://www.w3.org/1999/xlink">
<g><path style="opacity:0.31" fill="#b28670" d="M 18.5,15.5 C 15.5565,16.3674 12.5565,17.3674 9.5,18.5C 11.8453,15.925 14.8453,14.925 18.5,15.5 Z"/></g>
<g><path style="opacity:0.999" fill="#6831ef" d="M 18.5,15.5 C 49.5,15.5 80.5,15.5 111.5,15.5C 113.181,17.0075 115.181,18.0075 117.5,18.5C 122.141,20.7838 123.808,24.4505 122.5,29.5C 117.805,32.5106 113.138,35.5106 108.5,38.5C 108.103,37.475 107.437,37.3083 106.5,38C 104.937,38.7589 103.937,39.9256 103.5,41.5C 99.5,44.1667 95.5,46.8333 91.5,49.5C 91.1034,48.475 90.4368,48.3083 89.5,49C 87.9371,49.7589 86.9371,50.9256 86.5,52.5C 82.5,55.1667 78.5,57.8333 74.5,60.5C 74.1034,59.475 73.4368,59.3083 72.5,60C 70.9371,60.7589 69.9371,61.9256 69.5,63.5C 67.5286,64.8231 65.5286,66.1565 63.5,67.5C 60.4822,65.4742 57.4822,63.4742 54.5,61.5C 54.0629,59.9256 53.0629,58.7589 51.5,58C 50.5632,57.3083 49.8966,57.475 49.5,58.5C 45.5,55.8333 41.5,53.1667 37.5,50.5C 37.0629,48.9256 36.0629,47.7589 34.5,47C 33.5632,46.3083 32.8966,46.475 32.5,47.5C 28.5,44.8333 24.5,42.1667 20.5,39.5C 20.0629,37.9256 19.0629,36.7589 17.5,36C 16.5632,35.3083 15.8966,35.475 15.5,36.5C 11.6084,33.9664 7.77506,31.2997 4,28.5C 3.23502,26.9343 3.40168,25.6009 4.5,24.5C 5.90632,24.0269 6.57298,23.0269 6.5,21.5C 6.5,19.5 7.5,18.5 9.5,18.5C 12.5565,17.3674 15.5565,16.3674 18.5,15.5 Z"/></g>
<g><path style="opacity:0.953" fill="#6f817f" d="M 111.5,15.5 C 114.089,15.461 116.089,16.461 117.5,18.5C 115.181,18.0075 113.181,17.0075 111.5,15.5 Z"/></g>
<g><path style="opacity:0.502" fill="#b0b6a6" d="M 6.5,21.5 C 6.57298,23.0269 5.90632,24.0269 4.5,24.5C 4.42702,22.9731 5.09368,21.9731 6.5,21.5 Z"/></g>
<g><path style="opacity:0.78" fill="#848b7f" d="M 15.5,36.5 C 15.8966,35.475 16.5632,35.3083 17.5,36C 19.0629,36.7589 20.0629,37.9256 20.5,39.5C 18.6675,38.7515 17.0009,37.7515 15.5,36.5 Z"/></g>
<g><path style="opacity:0.999" fill="#662ff1" d="M 3.5,38.5 C 6.59222,40.7128 9.92555,42.3795 13.5,43.5C 15.2303,44.0256 16.5637,45.0256 17.5,46.5C 18.5736,47.8846 19.9069,49.0513 21.5,50C 22.4368,50.6917 23.1034,50.525 23.5,49.5C 24.8717,50.5116 26.205,51.5116 27.5,52.5C 27.8212,54.0481 28.8212,54.7148 30.5,54.5C 32.2303,55.0256 33.5637,56.0256 34.5,57.5C 35.5736,58.8846 36.9069,60.0513 38.5,61C 39.4368,61.6917 40.1034,61.525 40.5,60.5C 41.8717,61.5116 43.205,62.5116 44.5,63.5C 44.8212,65.0481 45.8212,65.7148 47.5,65.5C 49.3325,66.2485 50.9991,67.2485 52.5,68.5C 52.9371,70.0744 53.9371,71.2411 55.5,72C 56.4368,72.6917 57.1034,72.525 57.5,71.5C 60.0962,74.2337 63.0962,74.9004 66.5,73.5C 66.56,74.0431 66.8933,74.3764 67.5,74.5C 69.4192,73.3875 71.0858,72.0542 72.5,70.5C 72.9731,69.0937 73.9731,68.427 75.5,68.5C 77.0269,68.573 78.0269,67.9063 78.5,66.5C 79.9448,64.9373 81.6115,63.604 83.5,62.5C 83.56,63.0431 83.8933,63.3764 84.5,63.5C 86.4192,62.3875 88.0858,61.0542 89.5,59.5C 89.9731,58.0937 90.9731,57.427 92.5,57.5C 94.0269,57.573 95.0269,56.9063 95.5,55.5C 96.9448,53.9373 98.6115,52.604 100.5,51.5C 100.56,52.0431 100.893,52.3764 101.5,52.5C 103.419,51.3875 105.086,50.0542 106.5,48.5C 106.973,47.0937 107.973,46.427 109.5,46.5C 111.027,46.573 112.027,45.9063 112.5,44.5C 113.945,42.9373 115.611,41.604 117.5,40.5C 117.56,41.0431 117.893,41.3764 118.5,41.5C 120.029,40.2371 121.695,39.2371 123.5,38.5C 123.5,57.8333 123.5,77.1667 123.5,96.5C 122.633,99.4435 121.633,102.443 120.5,105.5C 119.167,106.167 118.167,107.167 117.5,108.5C 114.443,109.633 111.443,110.633 108.5,111.5C 78.5,111.5 48.5,111.5 18.5,111.5C 15.5565,110.633 12.5565,109.633 9.5,108.5C 9.02694,107.094 8.02694,106.427 6.5,106.5C 6.5,106.167 6.5,105.833 6.5,105.5C 6.3736,103.378 5.70693,102.378 4.5,102.5C 3.5027,81.3399 3.16936,60.0065 3.5,38.5 Z"/></g>
<g><path style="opacity:0.149" fill="#7d6881" d="M 108.5,38.5 C 106.999,39.7515 105.332,40.7515 103.5,41.5C 103.937,39.9256 104.937,38.7589 106.5,38C 107.437,37.3083 108.103,37.475 108.5,38.5 Z"/></g>
<g><path style="opacity:0.953" fill="#788986" d="M 123.5,38.5 C 121.695,39.2371 120.029,40.2371 118.5,41.5C 117.893,41.3764 117.56,41.0431 117.5,40.5C 119.392,39.2983 121.226,37.965 123,36.5C 123.464,37.0944 123.631,37.7611 123.5,38.5 Z"/></g>
<g><path style="opacity:0.98" fill="#a1659d" d="M 13.5,43.5 C 9.92555,42.3795 6.59222,40.7128 3.5,38.5C 3.36899,37.7611 3.53566,37.0944 4,36.5C 7.14537,38.9765 10.312,41.3098 13.5,43.5 Z"/></g>
<g><path style="opacity:0.89" fill="#a0a0a3" d="M 112.5,44.5 C 112.027,45.9063 111.027,46.573 109.5,46.5C 109.973,45.0937 110.973,44.427 112.5,44.5 Z"/></g>
<g><path style="opacity:0.78" fill="#848b7f" d="M 32.5,47.5 C 32.8966,46.475 33.5632,46.3083 34.5,47C 36.0629,47.7589 37.0629,48.9256 37.5,50.5C 35.6675,49.7515 34.0009,48.7515 32.5,47.5 Z"/></g>
<g><path style="opacity:0.145" fill="#a37a57" d="M 17.5,46.5 C 19.7837,46.9752 21.7837,47.9752 23.5,49.5C 23.1034,50.525 22.4368,50.6917 21.5,50C 19.9069,49.0513 18.5736,47.8846 17.5,46.5 Z"/></g>
<g><path style="opacity:0.149" fill="#7d6881" d="M 91.5,49.5 C 89.9991,50.7515 88.3325,51.7515 86.5,52.5C 86.9371,50.9256 87.9371,49.7589 89.5,49C 90.4368,48.3083 91.1034,48.475 91.5,49.5 Z"/></g>
<g><path style="opacity:0.953" fill="#79907f" d="M 106.5,48.5 C 105.086,50.0542 103.419,51.3875 101.5,52.5C 100.893,52.3764 100.56,52.0431 100.5,51.5C 102.216,49.9752 104.216,48.9752 106.5,48.5 Z"/></g>
<g><path style="opacity:0.047" fill="#80ab91" d="M 27.5,52.5 C 28.7095,52.9321 29.7095,53.5987 30.5,54.5C 28.8212,54.7148 27.8212,54.0481 27.5,52.5 Z"/></g>
<g><path style="opacity:0.89" fill="#a0a0a3" d="M 95.5,55.5 C 95.0269,56.9063 94.0269,57.573 92.5,57.5C 92.9731,56.0937 93.9731,55.427 95.5,55.5 Z"/></g>
<g><path style="opacity:0.106" fill="#7f6573" d="M 34.5,57.5 C 36.7837,57.9752 38.7837,58.9752 40.5,60.5C 40.1034,61.525 39.4368,61.6917 38.5,61C 36.9069,60.0513 35.5736,58.8846 34.5,57.5 Z"/></g>
<g><path style="opacity:0.78" fill="#848b7f" d="M 49.5,58.5 C 49.8966,57.475 50.5632,57.3083 51.5,58C 53.0629,58.7589 54.0629,59.9256 54.5,61.5C 52.6675,60.7515 51.0009,59.7515 49.5,58.5 Z"/></g>
<g><path style="opacity:0.149" fill="#7d6881" d="M 74.5,60.5 C 72.9991,61.7515 71.3325,62.7515 69.5,63.5C 69.9371,61.9256 70.9371,60.7589 72.5,60C 73.4368,59.3083 74.1034,59.475 74.5,60.5 Z"/></g>
<g><path style="opacity:0.953" fill="#79907f" d="M 89.5,59.5 C 88.0858,61.0542 86.4192,62.3875 84.5,63.5C 83.8933,63.3764 83.56,63.0431 83.5,62.5C 85.2163,60.9752 87.2163,59.9752 89.5,59.5 Z"/></g>
<g><path style="opacity:0.047" fill="#85b097" d="M 44.5,63.5 C 45.7095,63.9321 46.7095,64.5987 47.5,65.5C 45.8212,65.7148 44.8212,65.0481 44.5,63.5 Z"/></g>
<g><path style="opacity:0.89" fill="#a0a0a3" d="M 78.5,66.5 C 78.0269,67.9063 77.0269,68.573 75.5,68.5C 75.9731,67.0937 76.9731,66.427 78.5,66.5 Z"/></g>
<g><path style="opacity:0.937" fill="#9a7273" d="M 52.5,68.5 C 54.3325,69.2485 55.9991,70.2485 57.5,71.5C 57.1034,72.525 56.4368,72.6917 55.5,72C 53.9371,71.2411 52.9371,70.0744 52.5,68.5 Z"/></g>
<g><path style="opacity:0.953" fill="#79907f" d="M 72.5,70.5 C 71.0858,72.0542 69.4192,73.3875 67.5,74.5C 66.8933,74.3764 66.56,74.0431 66.5,73.5C 68.2163,71.9752 70.2163,70.9752 72.5,70.5 Z"/></g>
<g><path style="opacity:0.925" fill="#c5ac68" d="M 123.5,96.5 C 124.075,100.155 123.075,103.155 120.5,105.5C 121.633,102.443 122.633,99.4435 123.5,96.5 Z"/></g>
<g><path style="opacity:0.929" fill="#a1796d" d="M 6.5,105.5 C 5.09368,105.027 4.42702,104.027 4.5,102.5C 5.70693,102.378 6.3736,103.378 6.5,105.5 Z"/></g>
<g><path style="opacity:0.765" fill="#8e7e7d" d="M 6.5,106.5 C 8.02694,106.427 9.02694,107.094 9.5,108.5C 7.97306,108.573 6.97306,107.906 6.5,106.5 Z"/></g>
<g><path style="opacity:0.035" fill="#a6becb" d="M 120.5,105.5 C 120.5,107.5 119.5,108.5 117.5,108.5C 118.167,107.167 119.167,106.167 120.5,105.5 Z"/></g>
<g><path style="opacity:0.6" fill="#98ab71" d="M 9.5,108.5 C 12.5565,109.633 15.5565,110.633 18.5,111.5C 14.8453,112.075 11.8453,111.075 9.5,108.5 Z"/></g>
<g><path style="opacity:0.922" fill="#88b56f" d="M 117.5,108.5 C 115.155,111.075 112.155,112.075 108.5,111.5C 111.443,110.633 114.443,109.633 117.5,108.5 Z"/></g>
</svg>
