<?xml version="1.0" encoding="UTF-8"?>
<!DOCTYPE svg PUBLIC "-//W3C//DTD SVG 1.1//EN" "http://www.w3.org/Graphics/SVG/1.1/DTD/svg11.dtd">
<svg xmlns="http://www.w3.org/2000/svg" version="1.1" width="128px" height="128px" style="shape-rendering:geometricPrecision; text-rendering:geometricPrecision; image-rendering:optimizeQuality; fill-rule:evenodd; clip-rule:evenodd" xmlns:xlink="http://www.w3.org/1999/xlink">
<g><path style="opacity:1" fill="#6630f2" d="M 0.5,-0.5 C 2.5,-0.5 4.5,-0.5 6.5,-0.5C 7.69354,0.271873 8.69354,1.27187 9.5,2.5C 12.1612,5.5023 15.4945,7.5023 19.5,8.5C 23.2996,10.2336 26.9663,12.2336 30.5,14.5C 31.0347,16.4456 32.368,17.4456 34.5,17.5C 34.7828,18.2891 35.2828,18.9558 36,19.5C 36.1667,33.1667 36.3333,46.8333 36.5,60.5C 36.4993,74.5167 35.8326,88.1834 34.5,101.5C 33.3406,99.7497 31.674,98.7497 29.5,98.5C 28.3406,96.7497 26.674,95.7497 24.5,95.5C 22.2163,95.0248 20.2163,94.0248 18.5,92.5C 17.0978,90.5172 15.2645,88.8505 13,87.5C 12.6012,87.7284 12.4346,88.0618 12.5,88.5C 11.5084,88.6716 10.8417,88.3382 10.5,87.5C 8.51559,84.8361 5.84893,83.1695 2.5,82.5C 1.48837,81.1283 0.488369,79.795 -0.5,78.5C -0.5,52.5 -0.5,26.5 -0.5,0.5C 0.166667,0.5 0.5,0.166667 0.5,-0.5 Z"/></g>
<g><path style="opacity:0.502" fill="#e4d9e3" d="M 70.5,74.5 C 69.8386,71.0988 71.0052,68.0988 74,65.5C 74.6667,44.5 74.6667,23.5 74,2.5C 73.0228,3.77359 72.1894,3.77359 71.5,2.5C 72.4822,1.85917 73.4822,1.19251 74.5,0.5C 75.6664,22.4924 75.8331,44.4924 75,66.5C 72.8431,68.8171 71.3431,71.4838 70.5,74.5 Z"/></g>
<g><path style="opacity:1" fill="#662ff2" d="M 71.5,2.5 C 72.1894,3.77359 73.0228,3.77359 74,2.5C 74.6667,23.5 74.6667,44.5 74,65.5C 71.0052,68.0988 69.8386,71.0988 70.5,74.5C 70.5,75.1667 70.1667,75.5 69.5,75.5C 67.5389,77.32 67.2056,79.32 68.5,81.5C 69.897,87.926 67.5636,91.926 61.5,93.5C 58.9954,93.9802 56.6621,94.9802 54.5,96.5C 53.7025,96.9569 53.3691,97.6236 53.5,98.5C 53.1667,98.5 52.8333,98.5 52.5,98.5C 50.326,98.7497 48.6594,99.7497 47.5,101.5C 46.1674,88.1834 45.5007,74.5167 45.5,60.5C 45.6667,46.8333 45.8333,33.1667 46,19.5C 46.7172,18.9558 47.2172,18.2891 47.5,17.5C 49.674,17.2503 51.3406,16.2503 52.5,14.5C 52.9731,13.0937 53.9731,12.427 55.5,12.5C 55.4346,12.9382 55.6012,13.2716 56,13.5C 61.2874,10.6938 66.1207,7.36043 70.5,3.5C 70.5,2.83333 70.8333,2.5 71.5,2.5 Z"/></g>
<g><path style="opacity:1" fill="#6a33ef" d="M 113.5,19.5 C 113.973,20.9063 114.973,21.573 116.5,21.5C 116.833,21.5 117.167,21.5 117.5,21.5C 117.461,22.7562 117.961,23.7562 119,24.5C 119.167,29.8333 119.333,35.1667 119.5,40.5C 119.495,46.2109 118.828,51.5442 117.5,56.5C 116.779,54.6182 115.779,54.2848 114.5,55.5C 106.303,51.9342 97.9695,51.6009 89.5,54.5C 87.6203,54.2291 86.287,54.8958 85.5,56.5C 84.828,57.2674 83.9947,57.9341 83,58.5C 82.3333,39.1667 82.3333,19.8333 83,0.5C 93.3148,6.73313 103.481,13.0665 113.5,19.5 Z"/></g>
<g><path style="opacity:0.808" fill="#a1669a" d="M 9.5,2.5 C 13.173,4.00025 16.5063,6.00025 19.5,8.5C 15.4945,7.5023 12.1612,5.5023 9.5,2.5 Z"/></g>
<g><path style="opacity:0.435" fill="#a87a92" d="M 70.5,3.5 C 66.1207,7.36043 61.2874,10.6938 56,13.5C 55.6012,13.2716 55.4346,12.9382 55.5,12.5C 60.2329,9.11011 65.2329,6.11011 70.5,3.5 Z"/></g>
<g><path style="opacity:0.267" fill="#e3b9ab" d="M 30.5,14.5 C 32.2303,15.0256 33.5637,16.0256 34.5,17.5C 32.368,17.4456 31.0347,16.4456 30.5,14.5 Z"/></g>
<g><path style="opacity:0.953" fill="#728079" d="M 52.5,14.5 C 51.3406,16.2503 49.674,17.2503 47.5,17.5C 48.6594,15.7497 50.326,14.7497 52.5,14.5 Z"/></g>
<g><path style="opacity:0.749" fill="#d6e1e8" d="M 34.5,17.5 C 35.4959,17.4142 36.3292,17.7476 37,18.5C 37.8332,46.8392 37.6665,75.1725 36.5,103.5C 35.4777,103.145 34.811,102.478 34.5,101.5C 35.8326,88.1834 36.4993,74.5167 36.5,60.5C 36.3333,46.8333 36.1667,33.1667 36,19.5C 35.2828,18.9558 34.7828,18.2891 34.5,17.5 Z"/></g>
<g><path style="opacity:0.749" fill="#d4e1e7" d="M 47.5,17.5 C 47.2172,18.2891 46.7172,18.9558 46,19.5C 45.8333,33.1667 45.6667,46.8333 45.5,60.5C 45.5007,74.5167 46.1674,88.1834 47.5,101.5C 47.189,102.478 46.5223,103.145 45.5,103.5C 44.3335,75.1725 44.1668,46.8392 45,18.5C 45.6708,17.7476 46.5041,17.4142 47.5,17.5 Z"/></g>
<g><path style="opacity:0.286" fill="#c0aa9c" d="M 113.5,19.5 C 115.027,19.427 116.027,20.0937 116.5,21.5C 114.973,21.573 113.973,20.9063 113.5,19.5 Z"/></g>
<g><path style="opacity:0.502" fill="#eae8e6" d="M 117.5,21.5 C 118.458,21.9528 119.292,22.6195 120,23.5C 120.833,35.1809 120.666,46.8476 119.5,58.5C 118.478,58.1445 117.811,57.4778 117.5,56.5C 118.828,51.5442 119.495,46.2109 119.5,40.5C 119.333,35.1667 119.167,29.8333 119,24.5C 117.961,23.7562 117.461,22.7562 117.5,21.5 Z"/></g>
<g><path style="opacity:0.024" fill="#88bfba" d="M 89.5,54.5 C 88.4863,55.6737 87.153,56.3404 85.5,56.5C 86.287,54.8958 87.6203,54.2291 89.5,54.5 Z"/></g>
<g><path style="opacity:0.686" fill="#d1ad73" d="M 114.5,55.5 C 115.779,54.2848 116.779,54.6182 117.5,56.5C 116.391,56.4431 115.391,56.1098 114.5,55.5 Z"/></g>
<g><path style="opacity:1" fill="#6a32ee" d="M 110.5,61.5 C 115.404,64.1157 119.738,67.449 123.5,71.5C 124.167,71.5 124.5,71.8333 124.5,72.5C 123.892,74.6841 124.559,76.6841 126.5,78.5C 126.833,78.5 127.167,78.5 127.5,78.5C 127.5,83.5 127.5,88.5 127.5,93.5C 127.167,93.5 126.833,93.5 126.5,93.5C 124.981,96.0205 123.314,98.5205 121.5,101C 121.728,101.399 122.062,101.565 122.5,101.5C 121.551,103.777 120.218,105.777 118.5,107.5C 118.565,107.062 118.399,106.728 118,106.5C 116.961,107.244 116.461,108.244 116.5,109.5C 116.5,109.833 116.5,110.167 116.5,110.5C 114.5,110.5 113.5,111.5 113.5,113.5C 111.738,114.262 110.738,115.596 110.5,117.5C 109.241,121.025 107.241,124.025 104.5,126.5C 101.867,126.844 99.1999,126.177 96.5,124.5C 95.6618,124.158 95.3284,123.492 95.5,122.5C 94.5667,119.63 92.9,117.296 90.5,115.5C 89.8333,115.5 89.5,115.167 89.5,114.5C 90.0164,113.242 89.3497,112.242 87.5,111.5C 87.2624,109.596 86.2624,108.262 84.5,107.5C 82.7376,106.738 81.7376,105.404 81.5,103.5C 80.8392,101.243 79.8392,99.9093 78.5,99.5C 77.6618,99.1583 77.3284,98.4916 77.5,97.5C 77.9382,97.5654 78.2716,97.3988 78.5,97C 77.3913,95.1239 76.3913,93.2905 75.5,91.5C 74.5318,89.3926 74.1984,87.0593 74.5,84.5C 76.1761,79.4648 78.1761,74.4648 80.5,69.5C 83.1667,68.8333 84.8333,67.1667 85.5,64.5C 93.3467,59.1796 101.68,58.1796 110.5,61.5 Z M 108.5,77.5 C 111.161,81.3508 112.161,85.6841 111.5,90.5C 110.094,90.9731 109.427,91.9731 109.5,93.5C 108.833,93.5 108.5,93.8333 108.5,94.5C 106.5,95.1667 104.5,95.8333 102.5,96.5C 102.167,96.5 101.833,96.5 101.5,96.5C 97.8707,96.5175 94.8707,95.1842 92.5,92.5C 92.0113,91.0048 91.3446,89.6715 90.5,88.5C 90.5751,85.7938 90.9084,83.1272 91.5,80.5C 96.3423,75.1401 102.009,74.1401 108.5,77.5 Z"/></g>
<g><path style="opacity:0.784" fill="#847ab3" d="M 110.5,61.5 C 116.495,62.665 120.828,65.9983 123.5,71.5C 119.738,67.449 115.404,64.1157 110.5,61.5 Z"/></g>
<g><path style="opacity:0.973" fill="#8b7a76" d="M 85.5,64.5 C 84.8333,67.1667 83.1667,68.8333 80.5,69.5C 81.8333,67.5 83.5,65.8333 85.5,64.5 Z"/></g>
<g><path style="opacity:0.784" fill="#8b837b" d="M 108.5,77.5 C 102.009,74.1401 96.3423,75.1401 91.5,80.5C 92.2543,77.909 93.921,76.0757 96.5,75C 99.5,74.3333 102.5,74.3333 105.5,75C 106.942,75.3768 107.942,76.2101 108.5,77.5 Z"/></g>
<g><path style="opacity:0.047" fill="#848c78" d="M 124.5,72.5 C 125.73,74.2972 126.396,76.2972 126.5,78.5C 124.559,76.6841 123.892,74.6841 124.5,72.5 Z"/></g>
<g><path style="opacity:0.247" fill="#b0989d" d="M 80.5,69.5 C 78.1761,74.4648 76.1761,79.4648 74.5,84.5C 74.6005,78.647 76.6005,73.647 80.5,69.5 Z"/></g>
<g><path style="opacity:0.788" fill="#d7a196" d="M 69.5,75.5 C 69.1667,77.5 68.8333,79.5 68.5,81.5C 67.2056,79.32 67.5389,77.32 69.5,75.5 Z"/></g>
<g><path style="opacity:0.651" fill="#819e76" d="M -0.5,78.5 C 0.488369,79.795 1.48837,81.1283 2.5,82.5C 1.39105,82.4431 0.391047,82.1098 -0.5,81.5C -0.5,80.5 -0.5,79.5 -0.5,78.5 Z"/></g>
<g><path style="opacity:0.408" fill="#a98398" d="M 2.5,82.5 C 5.84893,83.1695 8.51559,84.8361 10.5,87.5C 7.48868,86.3307 4.82201,84.664 2.5,82.5 Z"/></g>
<g><path style="opacity:0.706" fill="#9ba478" d="M 91.5,80.5 C 90.9084,83.1272 90.5751,85.7938 90.5,88.5C 89.7037,88.7231 89.3704,87.8898 89.5,86C 89.3932,83.7794 90.0598,81.9461 91.5,80.5 Z"/></g>
<g><path style="opacity:0.365" fill="#a0a4b4" d="M 18.5,92.5 C 16.1184,91.6493 14.1184,90.316 12.5,88.5C 12.4346,88.0618 12.6012,87.7284 13,87.5C 15.2645,88.8505 17.0978,90.5172 18.5,92.5 Z"/></g>
<g><path style="opacity:0.518" fill="#de827f" d="M 111.5,90.5 C 111.573,92.0269 110.906,93.0269 109.5,93.5C 109.427,91.9731 110.094,90.9731 111.5,90.5 Z"/></g>
<g><path style="opacity:0.09" fill="#9880af" d="M 92.5,92.5 C 94.8707,95.1842 97.8707,96.5175 101.5,96.5C 97.474,98.0141 94.1407,96.8474 91.5,93C 91.7284,92.6012 92.0618,92.4346 92.5,92.5 Z"/></g>
<g><path style="opacity:0.867" fill="#ab9f81" d="M 108.5,94.5 C 106.915,96.9817 104.915,97.6484 102.5,96.5C 104.5,95.8333 106.5,95.1667 108.5,94.5 Z"/></g>
<g><path style="opacity:0.969" fill="#b1c294" d="M 24.5,95.5 C 26.674,95.7497 28.3406,96.7497 29.5,98.5C 27.326,98.2503 25.6594,97.2503 24.5,95.5 Z"/></g>
<g><path style="opacity:0.047" fill="#afa3b9" d="M 61.5,93.5 C 59.2063,95.653 56.5396,97.3197 53.5,98.5C 53.3691,97.6236 53.7025,96.9569 54.5,96.5C 56.6621,94.9802 58.9954,93.9802 61.5,93.5 Z"/></g>
<g><path style="opacity:0.969" fill="#9d8d9c" d="M 75.5,91.5 C 76.3913,93.2905 77.3913,95.1239 78.5,97C 78.2716,97.3988 77.9382,97.5654 77.5,97.5C 75.9261,95.8984 75.2594,93.8984 75.5,91.5 Z"/></g>
<g><path style="opacity:0.557" fill="#94ad7f" d="M 126.5,93.5 C 126.206,96.7541 124.873,99.4208 122.5,101.5C 122.062,101.565 121.728,101.399 121.5,101C 123.314,98.5205 124.981,96.0205 126.5,93.5 Z"/></g>
<g><path style="opacity:0.494" fill="#bcd2b0" d="M 29.5,98.5 C 31.674,98.7497 33.3406,99.7497 34.5,101.5C 32.326,101.25 30.6594,100.25 29.5,98.5 Z"/></g>
<g><path style="opacity:0.035" fill="#ad979a" d="M 52.5,98.5 C 51.3406,100.25 49.674,101.25 47.5,101.5C 48.6594,99.7497 50.326,98.7497 52.5,98.5 Z"/></g>
<g><path style="opacity:0.424" fill="#b98848" d="M 81.5,103.5 C 79.7376,102.738 78.7376,101.404 78.5,99.5C 79.8392,99.9093 80.8392,101.243 81.5,103.5 Z"/></g>
<g><path style="opacity:0.129" fill="#b86568" d="M 118.5,107.5 C 118.167,108.5 117.5,109.167 116.5,109.5C 116.461,108.244 116.961,107.244 118,106.5C 118.399,106.728 118.565,107.062 118.5,107.5 Z"/></g>
<g><path style="opacity:0.949" fill="#a6c27e" d="M 84.5,107.5 C 86.2624,108.262 87.2624,109.596 87.5,111.5C 85.7376,110.738 84.7376,109.404 84.5,107.5 Z"/></g>
<g><path style="opacity:0.365" fill="#99b7ba" d="M 116.5,110.5 C 115.833,111.833 114.833,112.833 113.5,113.5C 113.5,111.5 114.5,110.5 116.5,110.5 Z"/></g>
<g><path style="opacity:0.173" fill="#c4a16a" d="M 87.5,111.5 C 89.3497,112.242 90.0164,113.242 89.5,114.5C 88.0937,114.027 87.427,113.027 87.5,111.5 Z"/></g>
<g><path style="opacity:0.188" fill="#8ace64" d="M 113.5,113.5 C 113.262,115.404 112.262,116.738 110.5,117.5C 110.738,115.596 111.738,114.262 113.5,113.5 Z"/></g>
<g><path style="opacity:0.443" fill="#a15d85" d="M 90.5,115.5 C 92.9,117.296 94.5667,119.63 95.5,122.5C 93.1,120.704 91.4333,118.37 90.5,115.5 Z"/></g>
<g><path style="opacity:0.973" fill="#859dac" d="M 96.5,124.5 C 99.1999,126.177 101.867,126.844 104.5,126.5C 104.5,126.833 104.5,127.167 104.5,127.5C 102.5,127.5 100.5,127.5 98.5,127.5C 97.8333,126.5 97.1667,125.5 96.5,124.5 Z"/></g>
</svg>
